<?xml version="1.0" encoding="UTF-8" standalone="no"?>
<!-- Created with Inkscape (http://www.inkscape.org/) -->

<svg
   xmlns:dc="http://purl.org/dc/elements/1.1/"
   xmlns:cc="http://creativecommons.org/ns#"
   xmlns:rdf="http://www.w3.org/1999/02/22-rdf-syntax-ns#"
   xmlns:svg="http://www.w3.org/2000/svg"
   xmlns="http://www.w3.org/2000/svg"
   xmlns:sodipodi="http://sodipodi.sourceforge.net/DTD/sodipodi-0.dtd"
   xmlns:inkscape="http://www.inkscape.org/namespaces/inkscape"
   width="70mm"
   height="70mm"
   viewBox="0 0 70 70"
   version="1.1"
   id="svg1018"
   inkscape:version="0.92.3 (2405546, 2018-03-11)"
   sodipodi:docname="ingmainardidavide.svg">
  <defs
     id="defs1012" />
  <sodipodi:namedview
     id="base"
     pagecolor="#ffffff"
     bordercolor="#666666"
     borderopacity="1.0"
     inkscape:pageopacity="0.0"
     inkscape:pageshadow="2"
     inkscape:zoom="0.70000001"
     inkscape:cx="453.13512"
     inkscape:cy="95.866469"
     inkscape:document-units="mm"
     inkscape:current-layer="layer1"
     showgrid="false"
     inkscape:window-width="1366"
     inkscape:window-height="716"
     inkscape:window-x="0"
     inkscape:window-y="0"
     inkscape:window-maximized="1" />
  <metadata
     id="metadata1015">
    <rdf:RDF>
      <cc:Work
         rdf:about="">
        <dc:format>image/svg+xml</dc:format>
        <dc:type
           rdf:resource="http://purl.org/dc/dcmitype/StillImage" />
        <dc:title></dc:title>
      </cc:Work>
    </rdf:RDF>
  </metadata>
  <g
     inkscape:label="Livello 1"
     inkscape:groupmode="layer"
     id="layer1"
     transform="translate(0,-227)">
    <rect
       ry="0"
       y="227"
       x="0"
       height="70"
       width="70"
       id="rect2001"
       style="opacity:1;fill:#ffffff;fill-opacity:1;stroke:none;stroke-width:0.92646843;stroke-linecap:round;stroke-linejoin:round;stroke-miterlimit:4;stroke-dasharray:none;stroke-dashoffset:0;stroke-opacity:1;paint-order:normal" />
    <g
       id="g1016"
       transform="translate(2.4999954,-17.996811)">
      <g
         transform="matrix(0.6128434,0,0,0.61443872,-60.333547,117.3307)"
         id="text2005"
         style="font-style:normal;font-weight:normal;font-size:11.40025616px;line-height:1.25;font-family:sans-serif;letter-spacing:0px;word-spacing:0px;fill:#0b2e59;fill-opacity:1;stroke:none;stroke-width:0.28500637"
         aria-label="Ing. Mainardi">
        <path
           id="path2229"
           style="font-style:normal;font-variant:normal;font-weight:normal;font-stretch:normal;font-family:'Big John';-inkscape-font-specification:'Big John';letter-spacing:-0.26458332px;fill:#0b2e59;fill-opacity:1;stroke-width:0.28500637"
           d="m 106.74156,255.34131 h 2.24585 v -8.55019 h -2.24585 z"
           inkscape:connector-curvature="0" />
        <path
           id="path2231"
           style="font-style:normal;font-variant:normal;font-weight:normal;font-stretch:normal;font-family:'Big John';-inkscape-font-specification:'Big John';letter-spacing:-0.26458332px;fill:#0b2e59;fill-opacity:1;stroke-width:0.28500637"
           d="m 117.65671,255.34131 v -8.55019 h -2.24585 v 4.03569 l -4.04709,-4.03569 h -0.91202 v 8.55019 h 2.24585 v -4.04709 l 4.03569,4.04709 z"
           inkscape:connector-curvature="0" />
        <path
           id="path2233"
           style="font-style:normal;font-variant:normal;font-weight:normal;font-stretch:normal;font-family:'Big John';-inkscape-font-specification:'Big John';letter-spacing:-0.26458332px;fill:#0b2e59;fill-opacity:1;stroke-width:0.28500637"
           d="m 122.67526,250.74701 v 1.50483 h 1.65303 c -0.3534,0.51301 -0.98042,0.84362 -1.65303,0.84362 -1.04883,0 -2.01785,-0.85502 -2.01785,-2.02925 0,-1.17422 0.94622,-2.02924 2.01785,-2.02924 0.58141,0 1.06022,0.228 1.42503,0.57001 l 1.58463,-1.57324 c -0.77521,-0.76381 -1.83544,-1.24262 -3.00966,-1.24262 -2.35986,0 -4.2637,1.91524 -4.2637,4.27509 0,2.35986 1.90384,4.2751 4.2637,4.2751 2.35985,0 4.27509,-1.91524 4.27509,-4.2751 v -0.3192 z"
           inkscape:connector-curvature="0" />
        <path
           id="path2235"
           style="font-style:normal;font-variant:normal;font-weight:normal;font-stretch:normal;font-family:'Big John';-inkscape-font-specification:'Big John';letter-spacing:-0.26458332px;fill:#0b2e59;fill-opacity:1;stroke-width:0.28500637"
           d="m 127.5146,254.41789 c 0,0.51301 0.38761,0.92342 0.90062,0.92342 0.51302,0 0.90062,-0.41041 0.90062,-0.92342 0,-0.51301 -0.3876,-0.90062 -0.90062,-0.90062 -0.51301,0 -0.90062,0.38761 -0.90062,0.90062 z"
           inkscape:connector-curvature="0" />
        <path
           id="path2237"
           style="font-style:normal;font-variant:normal;font-weight:normal;font-stretch:normal;font-family:'Big John';-inkscape-font-specification:'Big John';letter-spacing:-0.26458332px;fill:#0b2e59;fill-opacity:1;stroke-width:0.28500637"
           d="m 136.25901,246.79112 h -1.01462 v 8.55019 h 2.25725 v -4.3777 l 2.24585,2.02925 2.23445,-2.04065 v 4.3891 h 2.25725 v -8.55019 h -1.01462 l -3.47708,3.16927 z"
           inkscape:connector-curvature="0" />
        <path
           id="path2239"
           style="font-style:normal;font-variant:normal;font-weight:normal;font-stretch:normal;font-family:'Big John';-inkscape-font-specification:'Big John';letter-spacing:-0.26458332px;fill:#0b2e59;fill-opacity:1;stroke-width:0.28500637"
           d="m 147.36565,255.34131 0.51301,-1.11723 h 3.49988 l 0.52441,1.11723 h 2.24585 l -4.02429,-8.55019 h -1.01462 l -3.99009,8.55019 z m 2.26865,-4.89071 0.86642,1.88104 h -1.74424 z"
           inkscape:connector-curvature="0" />
        <path
           id="path2241"
           style="font-style:normal;font-variant:normal;font-weight:normal;font-stretch:normal;font-family:'Big John';-inkscape-font-specification:'Big John';letter-spacing:-0.26458332px;fill:#0b2e59;fill-opacity:1;stroke-width:0.28500637"
           d="m 155.01053,255.34131 h 2.24585 v -8.55019 h -2.24585 z"
           inkscape:connector-curvature="0" />
        <path
           id="path2243"
           style="font-style:normal;font-variant:normal;font-weight:normal;font-stretch:normal;font-family:'Big John';-inkscape-font-specification:'Big John';letter-spacing:-0.26458332px;fill:#0b2e59;fill-opacity:1;stroke-width:0.28500637"
           d="m 165.92568,255.34131 v -8.55019 h -2.24586 v 4.03569 l -4.04709,-4.03569 h -0.91202 v 8.55019 h 2.24585 v -4.04709 l 4.03569,4.04709 z"
           inkscape:connector-curvature="0" />
        <path
           id="path2245"
           style="font-style:normal;font-variant:normal;font-weight:normal;font-stretch:normal;font-family:'Big John';-inkscape-font-specification:'Big John';letter-spacing:-0.26458332px;fill:#0b2e59;fill-opacity:1;stroke-width:0.28500637"
           d="m 169.06069,255.34131 0.51301,-1.11723 h 3.49988 l 0.52441,1.11723 h 2.24585 l -4.02429,-8.55019 h -1.01462 l -3.99009,8.55019 z m 2.26865,-4.89071 0.86642,1.88104 h -1.74424 z"
           inkscape:connector-curvature="0" />
        <path
           id="path2247"
           style="font-style:normal;font-variant:normal;font-weight:normal;font-stretch:normal;font-family:'Big John';-inkscape-font-specification:'Big John';letter-spacing:-0.26458332px;fill:#0b2e59;fill-opacity:1;stroke-width:0.28500637"
           d="m 184.26394,255.34131 -1.81264,-3.10087 c 0.61561,-0.57001 1.01462,-1.39083 1.01462,-2.30285 0,-1.73284 -1.41363,-3.14647 -3.14647,-3.14647 h -3.60248 v 8.55019 h 2.24585 v -2.26865 h 1.39083 l 1.32243,2.26865 z m -5.30112,-6.65775 h 1.39083 c 0.68401,0 1.23123,0.54721 1.23123,1.23123 0,0.68401 -0.54722,1.21982 -1.23123,1.21982 h -1.39083 z"
           inkscape:connector-curvature="0" />
        <path
           id="path2249"
           style="font-style:normal;font-variant:normal;font-weight:normal;font-stretch:normal;font-family:'Big John';-inkscape-font-specification:'Big John';letter-spacing:-0.26458332px;fill:#0b2e59;fill-opacity:1;stroke-width:0.28500637"
           d="m 185.1139,255.34131 h 3.16927 c 2.35986,0 4.2751,-1.91524 4.2751,-4.2751 0,-2.35985 -1.91524,-4.27509 -4.2751,-4.27509 h -3.16927 z m 2.23445,-6.28154 h 0.94622 c 1.11723,0 2.02925,0.91202 2.02925,2.01784 0,1.11723 -0.91202,2.02925 -2.02925,2.02925 h -0.94622 z"
           inkscape:connector-curvature="0" />
        <path
           id="path2251"
           style="font-style:normal;font-variant:normal;font-weight:normal;font-stretch:normal;font-family:'Big John';-inkscape-font-specification:'Big John';letter-spacing:-0.26458332px;fill:#0b2e59;fill-opacity:1;stroke-width:0.28500637"
           d="m 193.83344,255.34131 h 2.24585 v -8.55019 h -2.24585 z"
           inkscape:connector-curvature="0" />
      </g>
      <g
         id="text2009"
         style="font-style:normal;font-weight:normal;font-size:5.56242752px;line-height:1.25;font-family:sans-serif;letter-spacing:0px;word-spacing:0px;fill:#0b2e59;fill-opacity:1;stroke:#0b2e59;stroke-width:0.139;stroke-linecap:round;stroke-linejoin:bevel;stroke-miterlimit:4;stroke-dasharray:none;stroke-opacity:1"
         transform="matrix(0.72075961,0,0,0.52244148,-60.333547,117.3307)"
         aria-label="mainardisoluzioni.com">
        <path
           id="path2267"
           style="font-style:normal;font-variant:normal;font-weight:normal;font-stretch:normal;font-family:'Slim Joe';-inkscape-font-specification:'Slim Joe';fill:#0b2e59;fill-opacity:1;stroke:#0b2e59;stroke-width:0.139;stroke-linecap:round;stroke-linejoin:bevel;stroke-miterlimit:4;stroke-dasharray:none;stroke-opacity:1"
           d="m 95.107327,332.39682 h 0.111249 V 328.225 h -0.161311 l -2.04141,2.04141 -2.035849,-2.04141 h -0.16131 v 4.17182 h 0.111248 v -4.06613 l 2.085911,2.08591 2.091472,-2.08591 z"
           inkscape:connector-curvature="0" />
        <path
           id="path2269"
           style="font-style:normal;font-variant:normal;font-weight:normal;font-stretch:normal;font-family:'Slim Joe';-inkscape-font-specification:'Slim Joe';fill:#0b2e59;fill-opacity:1;stroke:#0b2e59;stroke-width:0.139;stroke-linecap:round;stroke-linejoin:bevel;stroke-miterlimit:4;stroke-dasharray:none;stroke-opacity:1"
           d="m 95.894759,332.39682 0.622992,-1.34054 h 2.525342 l 0.622992,1.34054 h 0.122373 l -1.94685,-4.17182 h -0.122373 l -1.94685,4.17182 z m 1.885663,-4.04388 1.207046,2.59209 h -2.414093 z"
           inkscape:connector-curvature="0" />
        <path
           id="path2271"
           style="font-style:normal;font-variant:normal;font-weight:normal;font-stretch:normal;font-family:'Slim Joe';-inkscape-font-specification:'Slim Joe';fill:#0b2e59;fill-opacity:1;stroke:#0b2e59;stroke-width:0.139;stroke-linecap:round;stroke-linejoin:bevel;stroke-miterlimit:4;stroke-dasharray:none;stroke-opacity:1"
           d="M 100.67236,332.39682 V 328.225 h -0.10568 v 4.17182 z"
           inkscape:connector-curvature="0" />
        <path
           id="path2273"
           style="font-style:normal;font-variant:normal;font-weight:normal;font-stretch:normal;font-family:'Slim Joe';-inkscape-font-specification:'Slim Joe';fill:#0b2e59;fill-opacity:1;stroke:#0b2e59;stroke-width:0.139;stroke-linecap:round;stroke-linejoin:bevel;stroke-miterlimit:4;stroke-dasharray:none;stroke-opacity:1"
           d="m 105.34089,332.39682 h 0.17244 V 328.225 h -0.11125 v 4.06057 l -3.22065,-4.06057 h -0.18356 v 4.17182 h 0.11125 v -4.06057 z"
           inkscape:connector-curvature="0" />
        <path
           id="path2275"
           style="font-style:normal;font-variant:normal;font-weight:normal;font-stretch:normal;font-family:'Slim Joe';-inkscape-font-specification:'Slim Joe';fill:#0b2e59;fill-opacity:1;stroke:#0b2e59;stroke-width:0.139;stroke-linecap:round;stroke-linejoin:bevel;stroke-miterlimit:4;stroke-dasharray:none;stroke-opacity:1"
           d="m 106.15048,332.39682 0.623,-1.34054 h 2.52534 l 0.62299,1.34054 h 0.12237 l -1.94685,-4.17182 h -0.12237 l -1.94685,4.17182 z m 1.88567,-4.04388 1.20704,2.59209 h -2.41409 z"
           inkscape:connector-curvature="0" />
        <path
           id="path2277"
           style="font-style:normal;font-variant:normal;font-weight:normal;font-stretch:normal;font-family:'Slim Joe';-inkscape-font-specification:'Slim Joe';fill:#0b2e59;fill-opacity:1;stroke:#0b2e59;stroke-width:0.139;stroke-linecap:round;stroke-linejoin:bevel;stroke-miterlimit:4;stroke-dasharray:none;stroke-opacity:1"
           d="m 112.98062,332.39682 h 0.12794 l -0.98455,-1.70767 c 0.67305,-0.0111 1.21817,-0.55624 1.21817,-1.22929 0,-0.67862 -0.55624,-1.23486 -1.23486,-1.23486 h -1.40729 v 4.17182 h 0.10568 v -1.70767 h 1.19036 z m 0.24475,-2.93696 c 0,0.62299 -0.50618,1.11805 -1.11805,1.12361 h -1.30161 v -2.25278 h 1.30161 c 0.61743,0.006 1.11805,0.51174 1.11805,1.12917 z"
           inkscape:connector-curvature="0" />
        <path
           id="path2279"
           style="font-style:normal;font-variant:normal;font-weight:normal;font-stretch:normal;font-family:'Slim Joe';-inkscape-font-specification:'Slim Joe';fill:#0b2e59;fill-opacity:1;stroke:#0b2e59;stroke-width:0.139;stroke-linecap:round;stroke-linejoin:bevel;stroke-miterlimit:4;stroke-dasharray:none;stroke-opacity:1"
           d="m 114.24173,332.39682 h 1.56304 c 1.15143,0 2.08591,-0.93449 2.08591,-2.08591 0,-1.14586 -0.93448,-2.08035 -2.08035,-2.08591 h -1.5686 z m 3.53214,-2.08591 c 0,1.0958 -0.88442,1.97466 -1.98022,1.97466 h -1.44067 v -3.94932 h 1.44067 c 1.0958,0 1.98022,0.87886 1.98022,1.97466 z"
           inkscape:connector-curvature="0" />
        <path
           id="path2281"
           style="font-style:normal;font-variant:normal;font-weight:normal;font-stretch:normal;font-family:'Slim Joe';-inkscape-font-specification:'Slim Joe';fill:#0b2e59;fill-opacity:1;stroke:#0b2e59;stroke-width:0.139;stroke-linecap:round;stroke-linejoin:bevel;stroke-miterlimit:4;stroke-dasharray:none;stroke-opacity:1"
           d="M 119.00013,332.39682 V 328.225 h -0.10569 v 4.17182 z"
           inkscape:connector-curvature="0" />
        <path
           id="path2283"
           style="font-style:normal;font-variant:normal;font-weight:normal;font-stretch:normal;font-family:'Slim Joe';-inkscape-font-specification:'Slim Joe';fill:#0b2e59;fill-opacity:1;stroke:#0b2e59;stroke-width:0.139;stroke-linecap:round;stroke-linejoin:bevel;stroke-miterlimit:4;stroke-dasharray:none;stroke-opacity:1"
           d="m 122.27805,329.29855 c 0,-0.58962 -0.47837,-1.07355 -1.06799,-1.07355 -0.58962,0 -1.06799,0.47837 -1.06799,1.06799 0,0.58961 0.47837,1.06798 1.06799,1.06798 0.53399,0 0.9623,0.43387 0.9623,0.96786 0,0.534 -0.42831,0.9623 -0.9623,0.9623 -0.53399,0 -0.9623,-0.43387 -0.9623,-0.96786 h -0.10569 c 0,0.58962 0.47837,1.07355 1.06799,1.07355 0.58962,0 1.06799,-0.47837 1.06799,-1.06799 0,-0.58961 -0.47837,-1.06798 -1.06799,-1.06798 -0.53399,0 -0.9623,-0.42831 -0.9623,-0.9623 0,-0.534 0.42831,-0.9623 0.9623,-0.9623 0.53399,0 0.9623,0.4283 0.9623,0.9623 z"
           inkscape:connector-curvature="0" />
        <path
           id="path2285"
           style="font-style:normal;font-variant:normal;font-weight:normal;font-stretch:normal;font-family:'Slim Joe';-inkscape-font-specification:'Slim Joe';fill:#0b2e59;fill-opacity:1;stroke:#0b2e59;stroke-width:0.139;stroke-linecap:round;stroke-linejoin:bevel;stroke-miterlimit:4;stroke-dasharray:none;stroke-opacity:1"
           d="m 122.99803,330.31091 c 0,1.15698 0.92893,2.08591 2.08591,2.08591 1.15699,0 2.09148,-0.92893 2.09148,-2.08591 0,-1.15699 -0.93449,-2.08591 -2.09148,-2.08591 -1.15698,0 -2.08591,0.92892 -2.08591,2.08591 z m 0.10569,0 c 0,-1.10136 0.87886,-1.98022 1.98022,-1.98022 1.10136,0 1.98579,0.87886 1.98579,1.98022 0,1.10136 -0.88443,1.98022 -1.98579,1.98022 -1.10136,0 -1.98022,-0.87886 -1.98022,-1.98022 z"
           inkscape:connector-curvature="0" />
        <path
           id="path2287"
           style="font-style:normal;font-variant:normal;font-weight:normal;font-stretch:normal;font-family:'Slim Joe';-inkscape-font-specification:'Slim Joe';fill:#0b2e59;fill-opacity:1;stroke:#0b2e59;stroke-width:0.139;stroke-linecap:round;stroke-linejoin:bevel;stroke-miterlimit:4;stroke-dasharray:none;stroke-opacity:1"
           d="m 128.1883,328.225 h -0.10568 v 4.17182 h 2.60321 v -0.10569 h -2.49753 z"
           inkscape:connector-curvature="0" />
        <path
           id="path2289"
           style="font-style:normal;font-variant:normal;font-weight:normal;font-stretch:normal;font-family:'Slim Joe';-inkscape-font-specification:'Slim Joe';fill:#0b2e59;fill-opacity:1;stroke:#0b2e59;stroke-width:0.139;stroke-linecap:round;stroke-linejoin:bevel;stroke-miterlimit:4;stroke-dasharray:none;stroke-opacity:1"
           d="m 131.45214,330.75034 c 0,0.91224 0.73424,1.64648 1.64648,1.64648 0.91224,0 1.65204,-0.73424 1.65204,-1.64648 V 328.225 h -0.11125 v 2.5309 c -0.006,0.84549 -0.70086,1.52411 -1.54079,1.52411 -0.84549,0 -1.53523,-0.68418 -1.53523,-1.52967 V 328.225 h -0.11125 z"
           inkscape:connector-curvature="0" />
        <path
           id="path2291"
           style="font-style:normal;font-variant:normal;font-weight:normal;font-stretch:normal;font-family:'Slim Joe';-inkscape-font-specification:'Slim Joe';fill:#0b2e59;fill-opacity:1;stroke:#0b2e59;stroke-width:0.139;stroke-linecap:round;stroke-linejoin:bevel;stroke-miterlimit:4;stroke-dasharray:none;stroke-opacity:1"
           d="m 138.31192,332.39682 v -0.11125 h -2.34179 l 2.34179,-4.06057 h -2.53647 v 0.11125 h 2.34178 l -2.34178,4.06057 z"
           inkscape:connector-curvature="0" />
        <path
           id="path2293"
           style="font-style:normal;font-variant:normal;font-weight:normal;font-stretch:normal;font-family:'Slim Joe';-inkscape-font-specification:'Slim Joe';fill:#0b2e59;fill-opacity:1;stroke:#0b2e59;stroke-width:0.139;stroke-linecap:round;stroke-linejoin:bevel;stroke-miterlimit:4;stroke-dasharray:none;stroke-opacity:1"
           d="M 139.55503,332.39682 V 328.225 h -0.10568 v 4.17182 z"
           inkscape:connector-curvature="0" />
        <path
           id="path2295"
           style="font-style:normal;font-variant:normal;font-weight:normal;font-stretch:normal;font-family:'Slim Joe';-inkscape-font-specification:'Slim Joe';fill:#0b2e59;fill-opacity:1;stroke:#0b2e59;stroke-width:0.139;stroke-linecap:round;stroke-linejoin:bevel;stroke-miterlimit:4;stroke-dasharray:none;stroke-opacity:1"
           d="m 140.64136,330.31091 c 0,1.15698 0.92892,2.08591 2.08591,2.08591 1.15698,0 2.09147,-0.92893 2.09147,-2.08591 0,-1.15699 -0.93449,-2.08591 -2.09147,-2.08591 -1.15699,0 -2.08591,0.92892 -2.08591,2.08591 z m 0.10569,0 c 0,-1.10136 0.87886,-1.98022 1.98022,-1.98022 1.10136,0 1.98579,0.87886 1.98579,1.98022 0,1.10136 -0.88443,1.98022 -1.98579,1.98022 -1.10136,0 -1.98022,-0.87886 -1.98022,-1.98022 z"
           inkscape:connector-curvature="0" />
        <path
           id="path2297"
           style="font-style:normal;font-variant:normal;font-weight:normal;font-stretch:normal;font-family:'Slim Joe';-inkscape-font-specification:'Slim Joe';fill:#0b2e59;fill-opacity:1;stroke:#0b2e59;stroke-width:0.139;stroke-linecap:round;stroke-linejoin:bevel;stroke-miterlimit:4;stroke-dasharray:none;stroke-opacity:1"
           d="m 149.06896,332.39682 h 0.17243 V 328.225 h -0.11125 v 4.06057 L 145.9095,328.225 h -0.18356 v 4.17182 h 0.11125 v -4.06057 z"
           inkscape:connector-curvature="0" />
        <path
           id="path2299"
           style="font-style:normal;font-variant:normal;font-weight:normal;font-stretch:normal;font-family:'Slim Joe';-inkscape-font-specification:'Slim Joe';fill:#0b2e59;fill-opacity:1;stroke:#0b2e59;stroke-width:0.139;stroke-linecap:round;stroke-linejoin:bevel;stroke-miterlimit:4;stroke-dasharray:none;stroke-opacity:1"
           d="M 150.46261,332.39682 V 328.225 h -0.10569 v 4.17182 z"
           inkscape:connector-curvature="0" />
        <path
           id="path2301"
           style="font-style:normal;font-variant:normal;font-weight:normal;font-stretch:normal;font-family:'Slim Joe';-inkscape-font-specification:'Slim Joe';fill:#0b2e59;fill-opacity:1;stroke:#0b2e59;stroke-width:0.139;stroke-linecap:round;stroke-linejoin:bevel;stroke-miterlimit:4;stroke-dasharray:none;stroke-opacity:1"
           d="m 151.8048,332.29113 c 0,0.0612 0.0445,0.10569 0.10569,0.10569 0.0612,0 0.11125,-0.0445 0.11125,-0.10569 0,-0.0612 -0.0501,-0.11124 -0.11125,-0.11124 -0.0612,0 -0.10569,0.0501 -0.10569,0.11124 z"
           inkscape:connector-curvature="0" />
        <path
           id="path2303"
           style="font-style:normal;font-variant:normal;font-weight:normal;font-stretch:normal;font-family:'Slim Joe';-inkscape-font-specification:'Slim Joe';fill:#0b2e59;fill-opacity:1;stroke:#0b2e59;stroke-width:0.139;stroke-linecap:round;stroke-linejoin:bevel;stroke-miterlimit:4;stroke-dasharray:none;stroke-opacity:1"
           d="m 156.41606,331.70152 c -0.356,0.36155 -0.85662,0.58961 -1.40174,0.58961 -1.09579,0 -1.98022,-0.88442 -1.98022,-1.98022 0,-1.0958 0.88443,-1.98022 1.98022,-1.98022 0.54512,0 1.03462,0.21693 1.39061,0.56736 l 0.0779,-0.0723 c -0.37824,-0.37268 -0.89555,-0.60074 -1.46848,-0.60074 -1.15142,0 -2.08591,0.93449 -2.08591,2.08591 0,1.15142 0.93449,2.08591 2.08591,2.08591 0.5785,0 1.10136,-0.23362 1.47961,-0.61187 z"
           inkscape:connector-curvature="0" />
        <path
           id="path2305"
           style="font-style:normal;font-variant:normal;font-weight:normal;font-stretch:normal;font-family:'Slim Joe';-inkscape-font-specification:'Slim Joe';fill:#0b2e59;fill-opacity:1;stroke:#0b2e59;stroke-width:0.139;stroke-linecap:round;stroke-linejoin:bevel;stroke-miterlimit:4;stroke-dasharray:none;stroke-opacity:1"
           d="m 157.29605,330.31091 c 0,1.15698 0.92892,2.08591 2.08591,2.08591 1.15698,0 2.09147,-0.92893 2.09147,-2.08591 0,-1.15699 -0.93449,-2.08591 -2.09147,-2.08591 -1.15699,0 -2.08591,0.92892 -2.08591,2.08591 z m 0.10568,0 c 0,-1.10136 0.87887,-1.98022 1.98023,-1.98022 1.10136,0 1.98579,0.87886 1.98579,1.98022 0,1.10136 -0.88443,1.98022 -1.98579,1.98022 -1.10136,0 -1.98023,-0.87886 -1.98023,-1.98022 z"
           inkscape:connector-curvature="0" />
        <path
           id="path2307"
           style="font-style:normal;font-variant:normal;font-weight:normal;font-stretch:normal;font-family:'Slim Joe';-inkscape-font-specification:'Slim Joe';fill:#0b2e59;fill-opacity:1;stroke:#0b2e59;stroke-width:0.139;stroke-linecap:round;stroke-linejoin:bevel;stroke-miterlimit:4;stroke-dasharray:none;stroke-opacity:1"
           d="m 166.66926,332.39682 h 0.11125 V 328.225 h -0.16131 l -2.04141,2.04141 -2.03585,-2.04141 h -0.16131 v 4.17182 h 0.11125 v -4.06613 l 2.08591,2.08591 2.09147,-2.08591 z"
           inkscape:connector-curvature="0" />
      </g>
      <g
         transform="matrix(0.6128434,0,0,0.61443872,-60.333547,118.02735)"
         id="text2013"
         style="font-style:normal;font-weight:normal;font-size:11.40025616px;line-height:1.25;font-family:sans-serif;letter-spacing:0px;word-spacing:0px;fill:#0b2e59;fill-opacity:1;stroke:none;stroke-width:0.28500637"
         aria-label="Davide">
        <path
           id="path2254"
           style="font-style:normal;font-variant:normal;font-weight:normal;font-stretch:normal;font-family:'Big John';-inkscape-font-specification:'Big John';letter-spacing:0px;fill:#0b2e59;fill-opacity:1;stroke-width:0.28500637"
           d="m 150.97962,268.81616 h 3.16928 c 2.35985,0 4.27509,-1.91524 4.27509,-4.27509 0,-2.35986 -1.91524,-4.2751 -4.27509,-4.2751 h -3.16928 z m 2.23445,-6.25874 h 0.94623 c 1.11722,0 2.02924,0.91202 2.02924,2.01785 0,1.11722 -0.91202,2.02924 -2.02924,2.02924 h -0.94623 z"
           inkscape:connector-curvature="0" />
        <path
           id="path2256"
           style="font-style:normal;font-variant:normal;font-weight:normal;font-stretch:normal;font-family:'Big John';-inkscape-font-specification:'Big John';letter-spacing:0px;fill:#0b2e59;fill-opacity:1;stroke-width:0.28500637"
           d="m 161.31698,268.81616 0.51302,-1.11722 h 3.49988 l 0.52441,1.11722 h 2.24585 l -4.02429,-8.55019 h -1.01463 l -3.99009,8.55019 z m 2.26866,-4.89071 0.86642,1.88104 h -1.74424 z"
           inkscape:connector-curvature="0" />
        <path
           id="path2258"
           style="font-style:normal;font-variant:normal;font-weight:normal;font-stretch:normal;font-family:'Big John';-inkscape-font-specification:'Big John';letter-spacing:0px;fill:#0b2e59;fill-opacity:1;stroke-width:0.28500637"
           d="m 174.66686,260.25457 -2.25725,4.86791 -2.24585,-4.86791 h -2.25725 l 3.99009,8.56159 h 1.02602 l 3.97869,-8.56159 z"
           inkscape:connector-curvature="0" />
        <path
           id="path2260"
           style="font-style:normal;font-variant:normal;font-weight:normal;font-stretch:normal;font-family:'Big John';-inkscape-font-specification:'Big John';letter-spacing:0px;fill:#0b2e59;fill-opacity:1;stroke-width:0.28500637"
           d="m 177.8657,268.81616 h 2.24585 v -8.55019 h -2.24585 z"
           inkscape:connector-curvature="0" />
        <path
           id="path2262"
           style="font-style:normal;font-variant:normal;font-weight:normal;font-stretch:normal;font-family:'Big John';-inkscape-font-specification:'Big John';letter-spacing:0px;fill:#0b2e59;fill-opacity:1;stroke-width:0.28500637"
           d="m 181.84047,268.81616 h 3.16928 c 2.35985,0 4.27509,-1.91524 4.27509,-4.27509 0,-2.35986 -1.91524,-4.2751 -4.27509,-4.2751 h -3.16928 z m 2.23445,-6.28154 h 0.94623 c 1.11722,0 2.02924,0.91202 2.02924,2.01785 0,1.11722 -0.91202,2.02924 -2.02924,2.02924 h -0.94623 z"
           inkscape:connector-curvature="0" />
        <path
           id="path2264"
           style="font-style:normal;font-variant:normal;font-weight:normal;font-stretch:normal;font-family:'Big John';-inkscape-font-specification:'Big John';letter-spacing:0px;fill:#0b2e59;fill-opacity:1;stroke-width:0.28500637"
           d="m 190.83599,268.81616 h 5.31252 v -1.83544 h -3.06667 v -1.57323 h 2.71326 v -1.89245 h -2.71326 v -1.39083 h 3.06667 v -1.85824 h -5.31252 z"
           inkscape:connector-curvature="0" />
      </g>
      <path
         transform="matrix(0.6128434,0,0,0.61443872,-68.374648,248.37437)"
         inkscape:transform-center-y="-0.50937027"
         d="m 156.34829,58.308246 -2.77346,0 -2.77346,0 1.38673,-2.401885 1.38673,-2.401885 1.38673,2.401885 z"
         inkscape:randomized="0"
         inkscape:rounded="0"
         inkscape:flatsided="false"
         sodipodi:arg2="1.5707963"
         sodipodi:arg1="0.52359878"
         sodipodi:r2="1.6012566"
         sodipodi:r1="3.2025132"
         sodipodi:cy="56.706989"
         sodipodi:cx="153.57483"
         sodipodi:sides="3"
         id="path2015"
         style="opacity:1;fill:#0b2e59;fill-opacity:1;stroke:#0b2e59;stroke-width:0.12798691;stroke-linecap:round;stroke-linejoin:round;stroke-miterlimit:4;stroke-dasharray:none;stroke-dashoffset:0;stroke-opacity:1;paint-order:normal"
         sodipodi:type="star"
         inkscape:transform-center-x="3.3122581e-06" />
      <path
         transform="matrix(0.6128434,0,0,0.61443872,-68.374648,248.37437)"
         sodipodi:type="star"
         style="opacity:1;fill:#0b2e59;fill-opacity:1;stroke:#0b2e59;stroke-width:0.12798691;stroke-linecap:round;stroke-linejoin:round;stroke-miterlimit:4;stroke-dasharray:none;stroke-dashoffset:0;stroke-opacity:1;paint-order:normal"
         id="path2017"
         sodipodi:sides="3"
         sodipodi:cx="153.57483"
         sodipodi:cy="49.685017"
         sodipodi:r1="3.2025132"
         sodipodi:r2="1.6012566"
         sodipodi:arg1="0.52359878"
         sodipodi:arg2="1.5707963"
         inkscape:flatsided="false"
         inkscape:rounded="0"
         inkscape:randomized="0"
         d="m 156.34829,51.286273 -2.77346,0 -2.77346,0 1.38673,-2.401885 1.38673,-2.401885 1.38673,2.401885 z"
         inkscape:transform-center-y="-0.50937669"
         inkscape:transform-center-x="3.3122581e-06" />
      <path
         transform="matrix(0.6128434,0,0,0.61443872,-68.374648,248.37437)"
         sodipodi:type="star"
         style="opacity:1;fill:#0b2e59;fill-opacity:1;stroke:#0b2e59;stroke-width:0.12798691;stroke-linecap:round;stroke-linejoin:round;stroke-miterlimit:4;stroke-dasharray:none;stroke-dashoffset:0;stroke-opacity:1;paint-order:normal"
         id="path2019"
         sodipodi:sides="3"
         sodipodi:cx="143.30629"
         sodipodi:cy="56.706989"
         sodipodi:r1="3.2025132"
         sodipodi:r2="1.6012566"
         sodipodi:arg1="0.52359878"
         sodipodi:arg2="1.5707963"
         inkscape:flatsided="false"
         inkscape:rounded="0"
         inkscape:randomized="0"
         d="m 146.07975,58.308246 -2.77346,0 -2.77346,0 1.38673,-2.401885 1.38673,-2.401885 1.38673,2.401885 z"
         inkscape:transform-center-y="-0.50937027"
         inkscape:transform-center-x="1.3055833e-06" />
      <path
         transform="matrix(0.6128434,0,0,0.61443872,-68.374648,248.37437)"
         inkscape:transform-center-y="-0.50937669"
         d="m 146.07975,51.286273 -2.77346,0 -2.77346,0 1.38673,-2.401885 1.38673,-2.401885 1.38673,2.401885 z"
         inkscape:randomized="0"
         inkscape:rounded="0"
         inkscape:flatsided="false"
         sodipodi:arg2="1.5707963"
         sodipodi:arg1="0.52359878"
         sodipodi:r2="1.6012566"
         sodipodi:r1="3.2025132"
         sodipodi:cy="49.685017"
         sodipodi:cx="143.30629"
         sodipodi:sides="3"
         id="path2021"
         style="opacity:1;fill:#0b2e59;fill-opacity:1;stroke:#0b2e59;stroke-width:0.12798691;stroke-linecap:round;stroke-linejoin:round;stroke-miterlimit:4;stroke-dasharray:none;stroke-dashoffset:0;stroke-opacity:1;paint-order:normal"
         sodipodi:type="star"
         inkscape:transform-center-x="1.3055833e-06" />
      <path
         transform="matrix(0.6128434,0,0,0.61443872,-68.374648,248.37437)"
         sodipodi:type="star"
         style="opacity:1;fill:#0b2e59;fill-opacity:1;stroke:#0b2e59;stroke-width:0.12798691;stroke-linecap:round;stroke-linejoin:round;stroke-miterlimit:4;stroke-dasharray:none;stroke-dashoffset:0;stroke-opacity:1;paint-order:normal"
         id="path2023"
         sodipodi:sides="3"
         sodipodi:cx="133.03775"
         sodipodi:cy="56.706989"
         sodipodi:r1="3.2025132"
         sodipodi:r2="1.6012566"
         sodipodi:arg1="0.52359878"
         sodipodi:arg2="1.5707963"
         inkscape:flatsided="false"
         inkscape:rounded="0"
         inkscape:randomized="0"
         d="m 135.81121,58.308246 -2.77346,0 -2.77346,0 1.38673,-2.401885 1.38673,-2.401885 1.38673,2.401885 z"
         inkscape:transform-center-y="-0.50937027" />
      <path
         transform="matrix(0.6128434,0,0,0.61443872,-68.374648,248.37437)"
         inkscape:transform-center-y="-0.50937669"
         d="m 135.81121,51.286273 -2.77346,0 -2.77346,0 1.38673,-2.401885 1.38673,-2.401885 1.38673,2.401885 z"
         inkscape:randomized="0"
         inkscape:rounded="0"
         inkscape:flatsided="false"
         sodipodi:arg2="1.5707963"
         sodipodi:arg1="0.52359878"
         sodipodi:r2="1.6012566"
         sodipodi:r1="3.2025132"
         sodipodi:cy="49.685017"
         sodipodi:cx="133.03775"
         sodipodi:sides="3"
         id="path2025"
         style="opacity:1;fill:#0b2e59;fill-opacity:1;stroke:#0b2e59;stroke-width:0.12798691;stroke-linecap:round;stroke-linejoin:round;stroke-miterlimit:4;stroke-dasharray:none;stroke-dashoffset:0;stroke-opacity:1;paint-order:normal"
         sodipodi:type="star" />
      <path
         transform="matrix(0.6128434,0,0,0.61443872,-68.374648,248.37437)"
         inkscape:transform-center-y="-0.50937027"
         d="m 125.54266,58.308246 -2.77346,0 -2.77345,0 1.38672,-2.401885 1.38673,-2.401885 1.38673,2.401885 z"
         inkscape:randomized="0"
         inkscape:rounded="0"
         inkscape:flatsided="false"
         sodipodi:arg2="1.5707963"
         sodipodi:arg1="0.52359878"
         sodipodi:r2="1.6012566"
         sodipodi:r1="3.2025132"
         sodipodi:cy="56.706989"
         sodipodi:cx="122.7692"
         sodipodi:sides="3"
         id="path2027"
         style="opacity:1;fill:#0b2e59;fill-opacity:1;stroke:#0b2e59;stroke-width:0.12798691;stroke-linecap:round;stroke-linejoin:round;stroke-miterlimit:4;stroke-dasharray:none;stroke-dashoffset:0;stroke-opacity:1;paint-order:normal"
         sodipodi:type="star" />
      <path
         transform="matrix(0.6128434,0,0,0.61443872,-68.374648,248.37437)"
         sodipodi:type="star"
         style="opacity:1;fill:#0b2e59;fill-opacity:1;stroke:#0b2e59;stroke-width:0.12798691;stroke-linecap:round;stroke-linejoin:round;stroke-miterlimit:4;stroke-dasharray:none;stroke-dashoffset:0;stroke-opacity:1;paint-order:normal"
         id="path2029"
         sodipodi:sides="3"
         sodipodi:cx="122.7692"
         sodipodi:cy="49.685017"
         sodipodi:r1="3.2025132"
         sodipodi:r2="1.6012566"
         sodipodi:arg1="0.52359878"
         sodipodi:arg2="1.5707963"
         inkscape:flatsided="false"
         inkscape:rounded="0"
         inkscape:randomized="0"
         d="m 125.54266,51.286273 -2.77346,0 -2.77345,0 1.38672,-2.401885 1.38673,-2.401885 1.38673,2.401885 z"
         inkscape:transform-center-y="-0.50937669" />
    </g>
  </g>
</svg>
